<svg width="36" height="36" viewBox="0 0 36 36" fill="none" xmlns="http://www.w3.org/2000/svg">
<path d="M18 2.25C9.30234 2.25 2.25 9.48516 2.25 18.4008C2.25 25.5375 6.76406 31.5844 13.0219 33.7219C13.1096 33.7409 13.1992 33.7504 13.2891 33.75C13.8727 33.75 14.0977 33.3211 14.0977 32.9484C14.0977 32.5617 14.0836 31.5492 14.0766 30.1992C13.5556 30.3214 13.0226 30.385 12.4875 30.3891C9.45703 30.3891 8.76797 28.0336 8.76797 28.0336C8.05078 26.1703 7.01719 25.6711 7.01719 25.6711C5.64609 24.7078 7.01016 24.6797 7.11562 24.6797H7.12266C8.70469 24.8203 9.53438 26.3531 9.53438 26.3531C10.3219 27.7312 11.3766 28.118 12.3187 28.118C12.9417 28.1055 13.5551 27.9618 14.1188 27.6961C14.2594 26.6555 14.6672 25.9453 15.1172 25.5375C11.6227 25.1297 7.94531 23.7445 7.94531 17.557C7.94531 15.7922 8.55703 14.3508 9.5625 13.2258C9.40078 12.818 8.85938 11.1727 9.71719 8.95078C9.83225 8.92325 9.95051 8.91142 10.0687 8.91563C10.6383 8.91563 11.925 9.13359 14.0484 10.6102C16.6286 9.88827 19.3574 9.88827 21.9375 10.6102C24.0609 9.13359 25.3477 8.91563 25.9172 8.91563C26.0354 8.91142 26.1537 8.92325 26.2688 8.95078C27.1266 11.1727 26.5852 12.818 26.4234 13.2258C27.4289 14.3578 28.0406 15.7992 28.0406 17.557C28.0406 23.7586 24.3563 25.1227 20.8477 25.5234C21.4102 26.0227 21.9164 27.007 21.9164 28.5117C21.9164 30.6703 21.8953 32.4141 21.8953 32.9414C21.8953 33.3211 22.1133 33.75 22.6969 33.75C22.7913 33.7504 22.8856 33.741 22.9781 33.7219C29.243 31.5844 33.75 25.5305 33.75 18.4008C33.75 9.48516 26.6977 2.25 18 2.25Z" fill="black"/>
</svg>
