<svg width="36" height="36" viewBox="0 0 36 36" fill="none" xmlns="http://www.w3.org/2000/svg">
<path d="M35.7642 10.4618C35.7642 7.29773 33.4368 4.75242 30.5611 4.75242C26.6657 4.57031 22.6931 4.5 18.6332 4.5H17.3676C13.3176 4.5 9.33793 4.57031 5.44262 4.75312C2.57387 4.75312 0.246521 7.3125 0.246521 10.4766C0.0707401 12.979 -0.00379117 15.4821 0.000427576 17.9852C-0.00660367 20.4884 0.0730838 22.9938 0.23949 25.5016C0.23949 28.6657 2.56683 31.2321 5.43558 31.2321C9.52777 31.422 13.7254 31.5063 17.9934 31.4993C22.2684 31.5134 26.4543 31.4243 30.5512 31.2321C33.427 31.2321 35.7543 28.6657 35.7543 25.5016C35.9231 22.9915 36.0004 20.4884 35.9934 17.9782C36.0093 15.4751 35.9329 12.9696 35.7642 10.4618ZM14.5551 24.8829V11.0665L24.7504 17.9712L14.5551 24.8829Z" fill="black"/>
</svg>
