<svg width="36" height="36" viewBox="0 0 36 36" fill="none" xmlns="http://www.w3.org/2000/svg">
<path d="M31.2307 2.25H4.94156C3.50508 2.25 2.25 3.28359 2.25 4.7032V31.0507C2.25 32.478 3.50508 33.75 4.94156 33.75H31.223C32.6672 33.75 33.75 32.4696 33.75 31.0507V4.7032C33.7584 3.28359 32.6672 2.25 31.2307 2.25ZM12.0143 28.5068H7.50164V14.4759H12.0143V28.5068ZM9.91406 12.3427H9.88172C8.4375 12.3427 7.50234 11.2676 7.50234 9.9218C7.50234 8.55141 8.46211 7.50164 9.93867 7.50164C11.4152 7.50164 12.3188 8.54367 12.3511 9.9218C12.3504 11.2676 11.4152 12.3427 9.91406 12.3427ZM28.5068 28.5068H23.9941V20.835C23.9941 18.997 23.3374 17.7413 21.7048 17.7413C20.4574 17.7413 19.7191 18.585 19.3908 19.407C19.2677 19.7023 19.2347 20.1045 19.2347 20.5151V28.5068H14.722V14.4759H19.2347V16.4285C19.8914 15.4934 20.9173 14.1476 23.3044 14.1476C26.2666 14.1476 28.5075 16.1002 28.5075 20.3098L28.5068 28.5068Z" fill="black"/>
</svg>
