<svg width="36" height="36" viewBox="0 0 36 36" fill="none" xmlns="http://www.w3.org/2000/svg">
<path d="M24.5623 4.87477C26.3013 4.87996 27.9676 5.57308 29.1972 6.80275C30.4269 8.03242 31.12 9.69872 31.1252 11.4377V24.5623C31.12 26.3013 30.4269 27.9676 29.1972 29.1972C27.9676 30.4269 26.3013 31.12 24.5623 31.1252H11.4377C9.69872 31.12 8.03242 30.4269 6.80275 29.1972C5.57308 27.9676 4.87996 26.3013 4.87477 24.5623V11.4377C4.87996 9.69872 5.57308 8.03242 6.80275 6.80275C8.03242 5.57308 9.69872 4.87996 11.4377 4.87477H24.5623ZM24.5623 2.25H11.4377C6.38437 2.25 2.25 6.38437 2.25 11.4377V24.5623C2.25 29.6156 6.38437 33.75 11.4377 33.75H24.5623C29.6156 33.75 33.75 29.6156 33.75 24.5623V11.4377C33.75 6.38437 29.6156 2.25 24.5623 2.25Z" fill="black"/>
<path d="M26.531 11.4375C26.1416 11.4375 25.761 11.322 25.4372 11.1057C25.1135 10.8894 24.8611 10.5819 24.7121 10.2222C24.5631 9.86242 24.5241 9.46657 24.6001 9.08467C24.6761 8.70277 24.8636 8.35197 25.1389 8.07663C25.4142 7.8013 25.765 7.61379 26.1469 7.53783C26.5288 7.46187 26.9247 7.50085 27.2844 7.64986C27.6442 7.79887 27.9516 8.05121 28.168 8.37497C28.3843 8.69873 28.4998 9.07937 28.4998 9.46875C28.5003 9.72745 28.4498 9.98371 28.351 10.2228C28.2523 10.4619 28.1073 10.6792 27.9244 10.8621C27.7415 11.045 27.5242 11.19 27.2851 11.2888C27.046 11.3875 26.7897 11.4381 26.531 11.4375ZM18 12.7495C19.0384 12.7495 20.0535 13.0575 20.9169 13.6344C21.7803 14.2113 22.4532 15.0312 22.8506 15.9906C23.248 16.9499 23.3519 18.0056 23.1494 19.024C22.9468 20.0425 22.4467 20.978 21.7125 21.7122C20.9782 22.4465 20.0427 22.9465 19.0243 23.1491C18.0058 23.3517 16.9502 23.2477 15.9908 22.8503C15.0315 22.453 14.2115 21.78 13.6346 20.9166C13.0577 20.0532 12.7498 19.0382 12.7498 17.9998C12.7513 16.6078 13.3049 15.2732 14.2892 14.2889C15.2735 13.3046 16.608 12.751 18 12.7495ZM18 10.1248C16.4425 10.1248 14.9199 10.5866 13.6249 11.4519C12.3299 12.3173 11.3205 13.5472 10.7245 14.9861C10.1284 16.4251 9.97246 18.0085 10.2763 19.5361C10.5802 21.0637 11.3302 22.4669 12.4315 23.5682C13.5329 24.6696 14.9361 25.4196 16.4637 25.7235C17.9913 26.0273 19.5747 25.8714 21.0136 25.2753C22.4526 24.6793 23.6825 23.6699 24.5478 22.3749C25.4131 21.0798 25.875 19.5573 25.875 17.9998C25.875 15.9112 25.0453 13.9081 23.5685 12.4313C22.0916 10.9545 20.0886 10.1248 18 10.1248Z" fill="black"/>
</svg>
