<svg width="24" height="25" viewBox="0 0 24 25" fill="none" xmlns="http://www.w3.org/2000/svg">
<path d="M11 17.7109H7C5.61667 17.7109 4.43767 17.2233 3.463 16.2479C2.48767 15.2733 2 14.0943 2 12.7109C2 11.3276 2.48767 10.1483 3.463 9.17294C4.43767 8.19827 5.61667 7.71094 7 7.71094H11V9.71094H7C6.16667 9.71094 5.45833 10.0026 4.875 10.5859C4.29167 11.1693 4 11.8776 4 12.7109C4 13.5443 4.29167 14.2526 4.875 14.8359C5.45833 15.4193 6.16667 15.7109 7 15.7109H11V17.7109ZM8 13.7109V11.7109H16V13.7109H8ZM13 17.7109V15.7109H17C17.8333 15.7109 18.5417 15.4193 19.125 14.8359C19.7083 14.2526 20 13.5443 20 12.7109C20 11.8776 19.7083 11.1693 19.125 10.5859C18.5417 10.0026 17.8333 9.71094 17 9.71094H13V7.71094H17C18.3833 7.71094 19.5627 8.19827 20.538 9.17294C21.5127 10.1483 22 11.3276 22 12.7109C22 14.0943 21.5127 15.2733 20.538 16.2479C19.5627 17.2233 18.3833 17.7109 17 17.7109H13Z" fill="#1E1E1E"/>
</svg>
