<svg width="40" height="40" viewBox="0 0 40 40" fill="none" xmlns="http://www.w3.org/2000/svg">
<path d="M27.5 20.0002C27.5 18.8668 27.4 17.7668 27.2667 16.6668H32.9C33.1667 17.7335 33.3333 18.8502 33.3333 20.0002C33.3333 20.6168 33.2833 21.2168 33.2 21.8002C34.35 21.9668 35.4167 22.3335 36.4 22.8668C36.5667 21.9335 36.6667 20.9835 36.6667 20.0002C36.6667 10.8335 29.1667 3.3335 20 3.3335C10.7833 3.3335 3.33334 10.8335 3.33334 20.0002C3.33334 29.1668 10.8333 36.6668 20 36.6668C20.9833 36.6668 21.9333 36.5668 22.8667 36.4002C22.0751 34.9484 21.6623 33.3204 21.6667 31.6668C21.6667 31.1835 21.7167 30.7168 21.7833 30.2502C21.25 31.3002 20.6667 32.3168 20 33.2668C18.6167 31.2668 17.5 29.0502 16.8167 26.6668H23.0167C24.0177 24.9274 25.5229 23.5327 27.3333 22.6668C27.4333 21.7835 27.5 20.9002 27.5 20.0002ZM20 6.71683C21.3833 8.71683 22.5 10.9502 23.1833 13.3335H16.8167C17.5 10.9502 18.6167 8.71683 20 6.71683ZM7.10001 23.3335C6.83334 22.2668 6.66668 21.1502 6.66668 20.0002C6.66668 18.8502 6.83334 17.7335 7.10001 16.6668H12.7333C12.6 17.7668 12.5 18.8668 12.5 20.0002C12.5 21.1335 12.6 22.2335 12.7333 23.3335H7.10001ZM8.46668 26.6668H13.3333C13.9167 28.7502 14.6667 30.7502 15.6667 32.6002C12.6311 31.5529 10.0748 29.4464 8.46668 26.6668ZM13.3333 13.3335H8.46668C10.0648 10.5455 12.6247 8.43597 15.6667 7.40016C14.6667 9.25016 13.9167 11.2502 13.3333 13.3335ZM23.9 23.3335H16.1C15.9333 22.2335 15.8333 21.1335 15.8333 20.0002C15.8333 18.8668 15.9333 17.7502 16.1 16.6668H23.9C24.05 17.7502 24.1667 18.8668 24.1667 20.0002C24.1667 21.1335 24.05 22.2335 23.9 23.3335ZM24.3167 7.40016C27.3833 8.45016 29.9333 10.5668 31.5333 13.3335H26.6167C26.095 11.2693 25.3226 9.27666 24.3167 7.40016ZM37.5 28.7502L29.5833 36.6668L25 31.6668L26.9333 29.7335L29.5833 32.3835L35.5667 26.4002L37.5 28.7502Z" fill="white"/>
</svg>
