<?xml version="1.0" encoding="utf-8"?>
<!-- Generator: Adobe Illustrator 27.9.0, SVG Export Plug-In . SVG Version: 6.00 Build 0)  -->
<svg version="1.1" id="Camada_1" xmlns="http://www.w3.org/2000/svg" xmlns:xlink="http://www.w3.org/1999/xlink" x="0px" y="0px"
	 viewBox="0 0 48 48" style="enable-background:new 0 0 48 48;" xml:space="preserve">
<g>
	<path d="M18.6,17.6c-3.6,0-6,2.9-6,6.3V24c0,3.4,2.5,6.4,6,6.4c3.6,0,16.8-2.9,16.8-6.3V24C35.4,20.6,22.2,17.6,18.6,17.6z"/>
	<path d="M36,0H12C5.4,0,0,5.4,0,12v24c0,6.6,5.4,12,12,12h24c6.6,0,12-5.4,12-12V12C48,5.4,42.6,0,36,0z M42.1,24
		c0,6.8-16.2,12.3-23.5,12.3c-7.3,0-12.7-5.4-12.7-12.2V24c0-6.8,5.5-12.3,12.7-12.3S42.1,17.2,42.1,24L42.1,24z"/>
</g>
</svg>
