<svg width="23" height="22" viewBox="0 0 23 22" fill="none" xmlns="http://www.w3.org/2000/svg">
<path d="M20.6411 16.5302C19.8968 15.7802 18.094 14.6857 17.2193 14.2446C16.0802 13.6708 15.9865 13.624 15.0911 14.2891C14.494 14.733 14.0969 15.1296 13.398 14.9805C12.6991 14.8315 11.1804 13.991 9.85051 12.6654C8.52067 11.3397 7.63145 9.77693 7.48192 9.08037C7.33239 8.38381 7.73551 7.99146 8.1752 7.39287C8.79489 6.54912 8.74801 6.4085 8.21832 5.26943C7.80536 4.3835 6.67895 2.59756 5.92614 1.85693C5.12082 1.06146 5.12083 1.20209 4.60192 1.41771C4.17947 1.59546 3.77418 1.81152 3.39114 2.06318C2.64114 2.56146 2.22489 2.97537 1.93379 3.5974C1.6427 4.21943 1.51192 5.67771 3.0152 8.40865C4.51848 11.1396 5.57317 12.536 7.75614 14.7129C9.93911 16.8897 11.6177 18.0602 14.0716 19.4365C17.1072 21.1366 18.2716 20.8052 18.8955 20.5146C19.5194 20.224 19.9352 19.8115 20.4344 19.0615C20.6867 18.6791 20.9033 18.2742 21.0813 17.8521C21.2974 17.3351 21.438 17.3351 20.6411 16.5302Z" stroke="#1E1E1E" stroke-width="2" stroke-miterlimit="10"/>
</svg>
